<?xml version="1.0" encoding="UTF-8"?>
<svg width="156px" height="26px" viewBox="0 0 156 26" version="1.1" xmlns="http://www.w3.org/2000/svg" xmlns:xlink="http://www.w3.org/1999/xlink">
    <!-- Generator: sketchtool 47.1 (45422) - http://www.bohemiancoding.com/sketch -->
    <title>A9013C03-00BA-41DD-9EAF-95CA45837BFA</title>
    <desc>Created with sketchtool.</desc>
    <defs></defs>
    <g id="Symbols" stroke="none" stroke-width="1" fill="none" fill-rule="evenodd">
        <g id="TOP" transform="translate(-643.000000, -35.000000)">
            <g transform="translate(-1.000000, 0.000000)" id="Branding-/-Links">
                <g transform="translate(644.000000, 35.000000)">
                    <g id="Rakuten-Logo">
                        <g>
                            <g id="Group" fill-rule="nonzero">
                                <path d="M26.30108,12.888 C26.30108,19.871 20.41364,25.53 13.14976,25.53 C5.88276,25.53 0,19.8715 0,12.888 C0,5.9035 5.88276,0.2405 13.14976,0.2405 C20.41364,0.2405 26.30108,5.9035 26.30108,12.888 Z" id="Shape" fill="#BE0000"></path>
                                <path d="M11.4114,19.6815 L11.4114,15.467 L13.31096,15.467 L16.59944,19.6815 L19.96124,19.6815 L15.98792,14.596 C17.22604,13.7415 18.03984,12.3515 18.03984,10.7775 C18.03984,8.192 15.85324,6.0925 13.16484,6.0925 L8.7256,6.0925 L8.7256,19.682 L11.4114,19.682 L11.4114,19.6815 Z M11.4114,8.6725 L13.1638,8.6725 C14.36968,8.6725 15.35612,9.616 15.35612,10.7775 C15.35612,11.9425 14.36968,12.885 13.1638,12.885 L11.4114,12.885 L11.4114,8.6725 Z" id="Shape" fill="#FFFFFF"></path>
                            </g>
                            <path d="M115.0942,19.1955 C114.85084,19.6855 114.30848,20.4025 113.21128,20.4025 C112.50876,20.4025 111.1838,19.9495 111.1838,18.23 L111.1838,10.37 L117.81068,10.37 L117.81068,6.0455 L111.1838,6.0455 L111.1838,1.505 L106.6858,1.505 L106.6858,6.0455 L103.49196,6.0455 L103.49196,10.37 L106.6858,10.37 L106.6858,18.23 C106.68476,22.2985 110.00392,24.7285 113.21128,24.7285 C116.493,24.7285 118.66764,22.5805 119.47468,20.327 L115.0942,19.1955 Z" id="Shape" fill="#000000" fill-rule="nonzero"></path>
                            <path d="M59.53636,6.0455 L59.53636,6.854 C58.23948,6.06 56.74812,5.598 55.15588,5.598 C50.26372,5.598 46.28364,9.888 46.28364,15.1565 C46.28364,20.4265 50.2632,24.7135 55.15588,24.7135 C56.74812,24.7135 58.24,24.2535 59.53636,23.458 L59.53636,24.266 L64.03384,24.266 L64.03384,6.0455 L59.53636,6.0455 Z M55.15588,20.389 C52.7436,20.389 50.78008,18.0415 50.78008,15.156 C50.78008,12.2725 52.7436,9.925 55.15588,9.925 C57.57128,9.925 59.53636,12.2725 59.53636,15.156 C59.53636,18.0415 57.57128,20.389 55.15588,20.389 Z" id="Shape" fill="#000000" fill-rule="nonzero"></path>
                            <path d="M97.42044,6.0455 L97.42044,16.749 C97.42044,18.7565 95.72316,20.389 93.6338,20.389 C91.546,20.389 89.84768,18.7565 89.84768,16.749 L89.84768,6.0455 L85.34968,6.0455 L85.34968,16.749 C85.34968,21.1405 89.06612,24.7135 93.6338,24.7135 C94.99776,24.7135 96.28424,24.391 97.42044,23.8255 L97.42044,24.266 L101.91792,24.266 L101.91792,6.0455 L97.42044,6.0455 Z" id="Shape" fill="#000000" fill-rule="nonzero"></path>
                            <path d="M147.71588,5.598 C146.35192,5.598 145.067,5.9235 143.9308,6.487 L143.9308,6.0455 L139.4328,6.0455 L139.4328,24.266 L143.9308,24.266 L143.9308,13.5645 C143.9308,11.555 145.62808,9.9215 147.71588,9.9215 C149.8042,9.9215 151.502,11.555 151.502,13.5645 L151.502,24.2655 L156,24.2655 L156,13.5645 C156,9.174 152.28512,5.598 147.71588,5.598 Z" id="Shape" fill="#000000" fill-rule="nonzero"></path>
                            <path d="M137.6336,15.1555 C137.6336,9.8785 133.65092,5.583 128.7572,5.583 C123.77976,5.583 119.88028,9.789 119.88028,15.1555 C119.88028,20.7985 124.88632,24.7295 129.38016,24.7295 C131.6484,24.7295 134.75384,23.9815 137.19576,20.651 L133.27912,18.476 C129.95736,22.378 125.32832,19.7295 124.86656,16.4285 L137.54624,16.431 C137.59616,16.007 137.6336,15.581 137.6336,15.1555 Z M132.548,12.5625 L124.96328,12.5625 C125.80516,9.0195 131.7134,8.2815 132.548,12.5625 Z" id="Shape" fill="#000000" fill-rule="nonzero"></path>
                            <polygon id="Shape" fill="#000000" fill-rule="nonzero" points="75.5664 14.586 84.45008 6.0455 78.08892 6.0455 71.23064 12.642 71.23064 0 66.73264 0 66.73264 24.2655 71.23064 24.2655 71.23064 16.5315 79.27244 24.2655 85.63048 24.2655"></polygon>
                            <path d="M33.42924,24.2655 L33.42924,17.2065 L36.6106,17.2065 L42.11844,24.2655 L47.749,24.2655 L41.09352,15.748 C43.1678,14.3165 44.52968,11.989 44.52968,9.352 C44.52968,5.022 40.86784,1.505 36.36464,1.505 L28.93124,1.505 L28.93124,24.266 L33.42924,24.266 L33.42924,24.2655 Z M33.42924,5.8265 L36.36464,5.8265 C38.38432,5.8265 40.03636,7.4065 40.03636,9.352 C40.03636,11.303 38.38432,12.882 36.36464,12.882 L33.42924,12.882 L33.42924,5.8265 L33.42924,5.8265 Z" id="Shape" fill="#000000" fill-rule="nonzero"></path>
                        </g>
                    </g>
                </g>
            </g>
        </g>
    </g>
</svg>